# xmcd
#
# Track frame offsets: 
#        150
#        12600
#        25208
#        41143
#        56133
#        70011
#        92754
#        113969
#        126765
#        140207
#        158106
#        174577
#
# Disc length: 2492 seconds
#
# Revision: 1
# Processed by: cddbd v1.5.2PL0 Copyright (c) Steve Scherf et al.
# Submitted via: ExactAudioCopy v1.0b3
#
DISCID=ad09ba0c
DTITLE=Big Bill Morganfield - Born Lover
DYEAR=2009
DGENRE=Blues
TTITLE0=Too Late Brother
TTITLE1=High Gas Prices
TTITLE2=My Love is Real
TTITLE3=Born Lover
TTITLE4=You've Got the Nerve of a Brass Monkey
TTITLE5=My Last Affair
TTITLE6=Peace of Mind
TTITLE7=I Play Dirty
TTITLE8=Who's the Fool?
TTITLE9=Lonesome Lonely Blues
TTITLE10=X-Rated Lover
TTITLE11=One Kiss
EXTD=
EXTT0=
EXTT1=
EXTT2=
EXTT3=
EXTT4=
EXTT5=
EXTT6=
EXTT7=
EXTT8=
EXTT9=
EXTT10=
EXTT11=
PLAYORDER=
